<?xml version="1.0" encoding="UTF-8" standalone="no"?>
<!-- Generator: Adobe Illustrator 20.0.0, SVG Export Plug-In . SVG Version: 6.00 Build 0)  -->

<svg
   xmlns:dc="http://purl.org/dc/elements/1.1/"
   xmlns:cc="http://creativecommons.org/ns#"
   xmlns:rdf="http://www.w3.org/1999/02/22-rdf-syntax-ns#"
   xmlns:svg="http://www.w3.org/2000/svg"
   xmlns="http://www.w3.org/2000/svg"
   xmlns:xlink="http://www.w3.org/1999/xlink"
   xmlns:sodipodi="http://sodipodi.sourceforge.net/DTD/sodipodi-0.dtd"
   xmlns:inkscape="http://www.inkscape.org/namespaces/inkscape"
   version="1.1"
   id="Ebene_1"
   x="0px"
   y="0px"
   viewBox="0 0 32 32"
   style="enable-background:new 0 0 32 32;"
   xml:space="preserve"
   width="32px"
   height="32px"
   class="br-symbol-library"
   sodipodi:docname="IsAdmin.svg"
   inkscape:version="0.92.3 (2405546, 2018-03-11)"><metadata
   id="metadata10"><rdf:RDF><cc:Work
       rdf:about=""><dc:format>image/svg+xml</dc:format><dc:type
         rdf:resource="http://purl.org/dc/dcmitype/StillImage" /></cc:Work></rdf:RDF></metadata><defs
   id="defs8"><linearGradient
     inkscape:collect="always"
     xlink:href="#linearGradient831"
     id="linearGradient833"
     x1="25.708063"
     y1="26.779877"
     x2="-2.0229402"
     y2="-4.0365105"
     gradientUnits="userSpaceOnUse" /><linearGradient
     inkscape:collect="always"
     id="linearGradient831"><stop
       style="stop-color:#0000ff;stop-opacity:1"
       offset="0"
       id="stop827" /><stop
       style="stop-color:#ffffff;stop-opacity:1"
       offset="1"
       id="stop829" /></linearGradient><linearGradient
     inkscape:collect="always"
     xlink:href="#linearGradient831"
     id="linearGradient5461"
     gradientUnits="userSpaceOnUse"
     x1="25.708063"
     y1="26.779877"
     x2="-2.0229402"
     y2="-4.0365105" /></defs><sodipodi:namedview
   pagecolor="#ffffff"
   bordercolor="#666666"
   borderopacity="1"
   objecttolerance="10"
   gridtolerance="10"
   guidetolerance="10"
   inkscape:pageopacity="0"
   inkscape:pageshadow="2"
   inkscape:window-width="1920"
   inkscape:window-height="1017"
   id="namedview6"
   showgrid="false"
   inkscape:zoom="5.2149125"
   inkscape:cx="13.695572"
   inkscape:cy="50.525439"
   inkscape:window-x="-8"
   inkscape:window-y="-8"
   inkscape:window-maximized="1"
   inkscape:current-layer="Ebene_1" />

<g
   id="Ebene_1_1_">
</g>
<g
   transform="matrix(0.72992021,0,0,0.72992021,-1.2592055,0.28057843)"
   id="Ebene_1_1_-3" /><g
   id="g5467"
   transform="translate(0.57527331)"><g
     style="fill:url(#linearGradient833);fill-opacity:1"
     transform="matrix(0.86726944,0,0,0.8446706,-3.4636604,-1.5554278)"
     id="Safety"><path
       style="fill:url(#linearGradient5461);fill-opacity:1"
       inkscape:connector-curvature="0"
       id="path2"
       d="M 26.9,5.4 C 26.2,4.9 21.5,2.2 15.9,2.2 10.2,2.2 5.8,4.9 5,5.4 4.1,6 3.8,6.6 3.8,7.5 v 5.1 c 0,11.7 8.1,15.3 11,16.9 0.3,0.2 0.7,0.3 1.1,0.3 0.4,0 0.9,-0.1 1.2,-0.3 C 20,27.9 28.3,24.3 28.3,12.6 V 7.5 C 28.2,6.6 27.6,5.9 26.9,5.4 Z" /></g><g
     style="fill:#ffffff;fill-opacity:1"
     id="UserGroup"
     transform="matrix(0.55362592,0,0,0.55362592,1.4130445,0.59357843)"><path
       style="fill:#ffffff;fill-opacity:1"
       id="path2-6"
       d="m 32,23.2 v 1.5 c 0,0.2 -0.2,0.3 -0.4,0.3 h -5.2 c 0,-0.2 0.1,-0.2 0.1,-0.4 v -1.9 c 0,-1.1 -0.2,-2 -1.4,-2.7 -0.1,0 -0.2,-0.1 -0.3,-0.2 -0.4,-0.3 -1.2,-0.7 -2,-1.1 0,0 0,0 0,0 V 17.4 C 22.2,17 22,16.6 22,15.9 22,14.3 22,14 22,14 c 0,-1.5 1,-2.8 2.9,-2.8 1.9,0 2.9,1.3 2.9,2.8 v 1.9 c 0,0.7 -0.2,1.1 -0.8,1.4 v 2.4 c 0.8,0.3 1.7,0.8 2.6,1.3 0.9,0.5 1.6,0.9 1.8,1 0.5,0.2 0.6,0.5 0.6,1.2 z M 0.3,24.9 h 5.2 c 0,-0.2 0,-0.2 0,-0.4 v -1.9 c 0,-1.1 0.2,-2 1.4,-2.7 H 7 C 7.4,19.7 8.2,19.2 9.2,18.7 V 17.3 C 9.8,17 10,16.6 10,15.9 V 14 c 0,-1.5 -1,-2.8 -2.9,-2.8 -1.9,0 -2.9,1.3 -2.9,2.8 0,0 0,0.3 0,1.9 0,0.7 0.2,1.1 0.8,1.4 v 2.3 C 4.2,19.9 3.3,20.4 2.4,20.9 1.5,21.4 0.8,21.8 0.6,21.9 0.1,22.2 0,22.5 0,23.2 v 1.5 c 0,0.1 0.1,0.2 0.3,0.2 z M 24.4,21.1 C 24.1,21 23.2,20.4 22.1,19.8 20.9,19.2 19.7,18.5 18.7,18.1 V 15 c 0.5,-0.4 1,-0.9 1,-1.8 v -2.4 c 0,-2 -1.3,-3.7 -3.8,-3.7 -2.5,0 -3.8,1.6 -3.8,3.7 0,0 0,0.4 0,2.4 0,0.9 0.5,1.4 1,1.8 v 3 c -1,0.4 -2.2,1.1 -3.4,1.7 -1.1,0.6 -2.1,1.2 -2.4,1.3 -0.7,0.4 -0.8,0.7 -0.8,1.6 0,0.3 0,1.9 0,1.9 0,0.2 0.1,0.4 0.3,0.4 h 17.8 c 0.2,0 0.4,-0.1 0.4,-0.4 0,0 0,-1.6 0,-1.9 0.2,-0.8 0.1,-1.2 -0.6,-1.5 z"
       inkscape:connector-curvature="0" /></g></g><g
   id="User"
   transform="matrix(0.71956857,0,0,0.71164429,9.1267241,9.6288326)">
	<path
   id="user_11_"
   d="m 30.5,24.6 c -0.9,-0.5 -6.8,-4 -9.8,-5.2 v -5.3 c 1,-0.6 1.5,-1.6 1.5,-3.1 V 6.9 c 0,-3.4 -2.1,-6.3 -6.2,-6.3 -4.1,0 -6.2,2.9 -6.2,6.3 0,0 0,0.7 0,4.2 0,1.5 0.5,2.5 1.5,3.1 v 5.2 c -3,1.2 -8.9,4.7 -9.8,5.2 -1.2,0.6 -1.5,1.2 -1.5,2.7 0,0.6 0,3.3 0,3.3 0,0.4 0.3,0.8 0.7,0.8 h 30.6 c 0.4,0 0.7,-0.4 0.7,-0.8 0,0 0,-2.7 0,-3.3 0,-1.5 -0.3,-2.1 -1.5,-2.7 z"
   inkscape:connector-curvature="0" />
</g></svg>